<?xml version="1.0" encoding="utf-8"?>
<!-- Generator: Adobe Illustrator 21.0.0, SVG Export Plug-In . SVG Version: 6.00 Build 0)  -->
<svg version="1.1" id="Layer_1" xmlns="http://www.w3.org/2000/svg" xmlns:xlink="http://www.w3.org/1999/xlink" x="0px" y="0px"
	 viewBox="0 0 50 50" style="enable-background:new 0 0 50 50;" xml:space="preserve">
<style type="text/css">
	.st0{fill:#FFFFFF;}
</style>
<g>
	<path class="st0" d="M44.6,4.5c-1.4-2.8-2.8-4.9-3.8-4.5c-1.7,0.8-7.4,8.8-7.4,8.8H16.6c0,0-5.7-8.1-7.4-8.8
		c-1-0.4-2.4,1.7-3.8,4.5c-3.1,6.2-3.9,13.1-3.9,20c0,3.7,0,11.1,0,14.8c0,14.2,47.1,14.2,47.1,0c0-3.7,0-11.1,0-14.8
		C48.5,17.6,47.7,10.8,44.6,4.5z M13.8,33.4c-2.1,0-3.9-1.7-3.9-3.9c0-2.1,1.7-3.9,3.9-3.9s3.9,1.7,3.9,3.9
		C17.6,31.7,15.9,33.4,13.8,33.4z M36.2,33.4c-2.1,0-3.9-1.7-3.9-3.9c0-2.1,1.7-3.9,3.9-3.9c2.1,0,3.9,1.7,3.9,3.9
		C40.1,31.7,38.4,33.4,36.2,33.4z"/>
</g>
</svg>
