<?xml version="1.0" encoding="utf-8"?>
<!-- Generator: Adobe Illustrator 21.0.0, SVG Export Plug-In . SVG Version: 6.00 Build 0)  -->
<svg version="1.1" id="Layer_1" xmlns="http://www.w3.org/2000/svg" xmlns:xlink="http://www.w3.org/1999/xlink" x="0px" y="0px"
	 viewBox="0 0 50 50" style="enable-background:new 0 0 50 50;" xml:space="preserve">
<style type="text/css">
	.st0{fill:#FFFFFF;}
</style>
<path class="st0" d="M49.3,9.9H0.8C0.3,9.9,0,9.6,0,9.2V0.8C0,0.3,0.3,0,0.8,0h48.5C49.7,0,50,0.3,50,0.8v8.4
	C50,9.6,49.7,9.9,49.3,9.9z"/>
<path class="st0" d="M49.3,30H0.8C0.3,30,0,29.6,0,29.2v-8.4C0,20.4,0.3,20,0.8,20h48.5c0.4,0,0.8,0.3,0.8,0.8v8.4
	C50,29.6,49.7,30,49.3,30z"/>
<path class="st0" d="M49.3,50H0.8C0.3,50,0,49.7,0,49.3v-8.4c0-0.4,0.3-0.8,0.8-0.8h48.5c0.4,0,0.8,0.3,0.8,0.8v8.4
	C50,49.7,49.7,50,49.3,50z"/>
</svg>
